<?xml version="1.0" encoding="utf-8"?>
<!-- Generator: Adobe Illustrator 17.0.0, SVG Export Plug-In . SVG Version: 6.00 Build 0)  -->
<!DOCTYPE svg PUBLIC "-//W3C//DTD SVG 1.1//EN" "http://www.w3.org/Graphics/SVG/1.1/DTD/svg11.dtd">
<svg version="1.1" xmlns="http://www.w3.org/2000/svg" xmlns:xlink="http://www.w3.org/1999/xlink" x="0px" y="0px" width="200px"
	 height="64px" viewBox="0 0 200 64" style="enable-background:new 0 0 200 64;" xml:space="preserve">
<style type="text/css">
	.st0{fill-rule:evenodd;clip-rule:evenodd;fill:none;stroke:#FFFFFF;stroke-miterlimit:10;}
	.st1{fill:#333333;}
</style>
<g id="Layer_1">
</g>
<g id="Layer_2">
	<g>
		<g>
			<path class="st1" d="M3.8,6.4c0-1.7-0.1-3.3-0.2-4.9c0.4,1.1,0.7,2.2,1.2,3.2l9.3,20.9h1.6L25,4.5c0.4-1,0.7-2,1.2-3
				c-0.1,1.7-0.2,3.3-0.2,5v19.1h1.6V0h-2.2c-2.5,5.6-8.5,19.5-8.5,19.5C15.6,22.1,15,24,15,24s-0.8-2-2.1-5c0,0-6.1-13.8-8.4-19
				H2.3v25.6h1.6V6.4z M55,25.6L44.6,0h-1.7L32.2,25.6h1.7l3.4-8.3H50l3.3,8.3H55z M37.8,16l4.9-12c0.4-0.9,0.7-1.7,1-2.6
				c0.3,0.9,0.6,1.9,1,2.7L49.4,16H37.8z M59.4,25.6l9-12l8.9,12h2l-9.9-13.1L78.7,0h-1.8l-8.6,11.3L60,0H58l9.4,12.4l-9.9,13.1
				H59.4z M87.6,0H86v25.6h1.6V0z M111.1,19.5c-1.2,2.7-1.8,4.5-1.8,4.5s-0.8-2-2.1-5c0,0-6.1-13.8-8.4-19h-2.2v25.6h1.6V6.4
				c0-1.7-0.1-3.3-0.2-4.9c0.4,1.1,0.7,2.2,1.2,3.2l9.3,20.9h1.6l9.3-21.1c0.4-1,0.7-2,1.2-3c-0.1,1.7-0.2,3.3-0.2,5v19.1h1.6V0
				h-2.2C117.1,5.6,111.1,19.5,111.1,19.5z M11.7,47.9c-5.3-1.1-9.3-1.7-9.3-5.8c0-3.3,2.7-5.4,7.4-5.4c4.6,0,8,1.8,8.3,6.5h1.6
				c-0.4-5.5-4.3-7.8-9.8-7.8c-5.7,0-9.1,2.6-9.1,6.8c0,5.2,5,5.9,9.1,6.9c3.4,0.8,8.8,1.3,8.8,5.8c0,3.7-3.1,5.9-8.2,5.9
				c-5.5,0-8.9-2.4-9-7.7H0c0,6.2,4.2,9,10.4,9c6.2,0,9.9-2.7,9.9-7.3C20.3,49.7,15.7,48.8,11.7,47.9z M34.1,35.9L23.4,61.5h1.7
				l3.4-8.3h12.7l3.3,8.3h1.8L35.8,35.9H34.1z M40.7,51.9H29l4.9-12c0.4-0.9,0.7-1.7,1-2.6c0.3,0.9,0.6,1.9,1,2.7L40.7,51.9z
				 M69.4,53c-0.5-2.8-2.5-3.6-4.8-3.9c3.4-0.6,5.6-2.9,5.6-6.4c0-2.4-1-4.4-2.9-5.6c-1.3-0.8-3-1.2-5.5-1.2H50.9v25.6h1.6V49.7h8.2
				c4.6,0,7.1,0.6,7.4,5.5c0.1,1,0.2,4.1,0.4,5.2c0.1,0.4,0.1,0.7,0.4,1h1.8c-0.3-0.5-0.4-0.6-0.5-1.2C69.7,57.9,69.9,55.4,69.4,53z
				 M60.5,48.4h-8V37.2h8.7c1.8,0,3.3,0.1,4.9,1c1.6,1,2.4,2.5,2.4,4.5C68.6,47.6,64.5,48.4,60.5,48.4z M85.7,47.8
				c-0.4,0.6-0.7,1.1-1.1,1.7c-0.4-0.6-0.8-1.2-1.2-1.8L75,35.9h-1.9l10.6,14.9v10.7h1.6V50.8l10.7-14.9h-1.8L85.7,47.8z M110,60.7
				c-6.3,0-10.5-4.8-10.5-12s4.3-12,10.6-12c4.8,0,8.4,2.7,9.3,6.9h1.6c-0.6-5.2-5.7-8.3-10.8-8.3c-7.3,0-12.2,5.4-12.2,13.5
				c0,8,4.8,13.3,12.1,13.3c6.3,0,10.9-4.2,11.4-10.5h-1.5C119.2,56.7,115.7,60.7,110,60.7z M146.1,47.4h-16.9V35.9h-1.6v25.6h1.6
				V48.8h16.9v12.7h1.6V35.9h-1.6V47.4z M163,35.9l-10.7,25.6h1.7l3.4-8.3h12.7l3.3,8.3h1.8l-10.5-25.6H163z M169.6,51.9h-11.7
				l4.9-12c0.4-0.9,0.7-1.7,1-2.6c0.3,0.9,0.6,1.9,1,2.7L169.6,51.9z M198.4,35.9v15.6c0,5.5-2.1,9.2-8.4,9.2
				c-6.4,0-8.7-3.4-8.7-9.2V35.9h-1.6v15.5c0,6.6,2.9,10.6,10.4,10.6c6.1,0,10-3.4,10-9.3V35.9H198.4z"/>
		</g>
	</g>
</g>
</svg>
